<?xml version="1.0" encoding="UTF-8"?>
<svg width="21px" height="19px" viewBox="0 0 21 19" version="1.1" xmlns="http://www.w3.org/2000/svg" xmlns:xlink="http://www.w3.org/1999/xlink">
    <title>chart-pie</title>
    <g id="Page-1" stroke="none" stroke-width="1" fill="none" fill-rule="evenodd">
        <g id="Profile-Page-2" transform="translate(-39.000000, -331.000000)" fill="#ACB2BF" fill-rule="nonzero">
            <g id="side-menu" transform="translate(-1.000000, 70.000000)">
                <g id="5" transform="translate(40.500000, 260.000000)">
                    <path d="M17.866856,9.68751743 C18.1882054,9.68751743 18.4581937,9.41752906 18.4360495,9.09690071 C18.1463544,4.89714647 14.7903482,1.54114022 10.5905939,1.25144517 C10.578303,1.25038087 10.5659777,1.25003755 10.5540301,1.25003755 C10.2499499,1.25003755 9.9999772,1.51161453 9.9999772,1.82063861 L9.9999772,9.68751743 L17.866856,9.68751743 Z M8.98151268,19.249308 C10.7533629,19.2271294 12.3905965,18.6562193 13.7367275,17.7013724 C14.0144749,17.5044773 14.0327397,17.0956152 13.7919336,16.8548092 L8.31248122,11.3750134 L8.31248122,3.03314869 C8.31248122,2.72271699 8.06007094,2.46326861 7.75911493,2.46326861 C7.73449875,2.46326861 7.7099169,2.46501955 7.68495739,2.46855576 C3.49574314,3.06023679 0.293373452,6.72032328 0.442409504,11.106776 C0.59463845,15.5772396 4.4164639,19.2499946 8.87920274,19.2499946 L8.98151268,19.249308 L8.98151268,19.249308 Z M16.5562589,8.00002146 L11.6874732,8.00002146 L11.6874732,3.13123576 C14.0626087,3.74437441 15.9431202,5.62488598 16.5562589,8.00002146 Z M8.96077604,17.5621553 L8.87954607,17.5624987 C5.34072088,17.5624987 2.24945018,14.579855 2.12921884,11.0494756 C2.0269089,8.04712523 3.89227997,5.41147706 6.62498525,4.45415818 L6.62498525,12.0739139 L11.5567019,17.0056305 C10.7424796,17.360694 9.8635754,17.5505511 8.96077604,17.5621553 Z M16.6146236,17.099838 C16.7488968,17.099838 16.8824834,17.0523909 16.9862009,16.9546472 C18.3467514,15.6728547 19.2826127,13.9449154 19.5571672,12.0025372 C19.6043053,11.6699613 19.3283088,11.3750134 18.9925743,11.3750134 L10.6503663,11.3750134 L16.2061048,16.930752 C16.3175471,17.0421943 16.4666175,17.099838 16.6146236,17.099838 Z" id="chart-pie"></path>
                </g>
            </g>
        </g>
    </g>
</svg>