<?xml version="1.0" encoding="UTF-8"?>
<svg width="20px" height="16px" viewBox="0 0 20 16" version="1.1" xmlns="http://www.w3.org/2000/svg" xmlns:xlink="http://www.w3.org/1999/xlink">
    <title>eye-slash</title>
    <g id="Page-1" stroke="none" stroke-width="1" fill="none" fill-rule="evenodd">
        <g id="Login-2" transform="translate(-468.000000, -598.000000)" fill="#8C93A7" fill-rule="nonzero">
            <g id="left-column" transform="translate(135.000000, 167.000000)">
                <g id="password" transform="translate(0.000000, 387.000000)">
                    <path d="M352.187088,59.9998121 C352.345016,59.9998121 352.486099,59.9269668 352.577773,59.8124957 L352.890272,59.4221768 C352.958967,59.3365447 353.000074,59.2278718 353.000074,59.109647 C353.000074,58.9515969 352.927107,58.8103924 352.812453,58.7187483 L334.124997,44.1097133 C334.039426,44.0412015 333.930875,44.0002165 333.812864,44.0002165 C333.654936,44.0002165 333.513854,44.0730618 333.422179,44.1875329 L333.10968,44.5778518 C333.040985,44.6634839 332.999878,44.7721568 332.999878,44.8903816 C332.999878,45.0484318 333.072845,45.1896363 333.1875,45.2812803 L351.874955,59.8903153 C351.960526,59.9588271 352.069077,59.9998121 352.187088,59.9998121 Z M350.239644,54.8031387 C350.89519,54.1018465 351.449266,53.3172719 351.892777,52.4559458 C351.96193,52.3191359 352.000901,52.1645037 352.000901,52.0008383 C352.000901,51.8372034 351.96193,51.6805876 351.892777,51.5437776 C350.196523,48.2372059 346.84152,46.0000286 342.999976,46.0000286 C341.853098,46.0000286 340.759045,46.2187781 339.7303,46.5878263 L341.180614,47.7218873 C341.772471,47.5875187 342.378731,47.5000286 342.999976,47.5000286 C346.082794,47.5000286 348.90902,49.2187709 350.435261,52.0000143 C350.058339,52.6896489 349.598715,53.3171193 349.060264,53.8812659 L350.239644,54.8031387 Z M346.486845,51.8703149 C346.417479,49.9972115 344.889986,48.5000226 342.999976,48.5000226 C342.750496,48.5004804 342.509407,48.5271222 342.274667,48.5772014 L346.486845,51.8703149 Z M342.999976,58 C344.146855,58 345.240907,57.7796941 346.269652,57.4122023 L344.819338,56.2784465 C344.227482,56.4125099 343.621526,56.5000036 342.999976,56.5000036 C339.917159,56.5000036 337.091238,54.7812577 335.564691,52.0000143 C335.942101,51.3103797 336.402214,50.6830314 336.941244,50.1190679 L335.761865,49.1971951 C335.10644,49.8983958 334.552456,50.6828788 334.109067,51.5440828 C334.039884,51.6808928 334.000913,51.835525 334.000913,51.9991903 C334.000913,52.1628252 334.039884,52.319441 334.109067,52.456251 C335.803735,55.7628227 339.158738,58 342.999976,58 Z M342.999976,55.500006 C343.249396,55.4994872 343.490484,55.4729369 343.725286,55.4231324 L339.513107,52.1300189 C339.582809,54.0028171 341.110302,55.500006 342.999976,55.500006 Z" id="eye-slash"></path>
                </g>
            </g>
        </g>
    </g>
</svg>