 <?xml version="1.0" encoding="UTF-8"?>
<svg width="17px" height="12px" viewBox="0 0 17 12" version="1.1" xmlns="http://www.w3.org/2000/svg" xmlns:xlink="http://www.w3.org/1999/xlink">
    <title>eye</title>
    <g id="Page-1" stroke="none" stroke-width="1" fill="none" fill-rule="evenodd">
        <g id="Profile-Page" transform="translate(-672.000000, -858.000000)" fill="#8C93A7" fill-rule="nonzero">
            <g id="inputs" transform="translate(434.000000, 816.000000)">
                <g id="input" transform="translate(0.000000, 28.000000)">
                    <path d="M246.56248,26 C250.163927,26 253.310129,23.9011872 254.897993,20.8024492 C254.962852,20.6741899 254.999388,20.5292222 254.999388,20.3757859 C254.999388,20.2223782 254.962852,20.0755509 254.897993,19.9472915 C253.309242,16.8473805 250.163927,14.7500268 246.56248,14.7500268 C242.961033,14.7500268 239.814831,16.8488396 238.226967,19.9475776 C238.162107,20.075837 238.125572,20.2208046 238.125572,20.3742409 C238.125572,20.5276486 238.162107,20.674476 238.226967,20.8027353 C239.815717,23.9026463 242.961033,26 246.56248,26 Z M246.56248,24.5937534 C243.672339,24.5937534 241.022752,22.9824291 239.5919,20.3750134 C241.022752,17.7675978 243.672053,16.1562735 246.56248,16.1562735 C249.452907,16.1562735 252.102208,17.7675978 253.53306,20.3750134 C252.102494,22.9824291 249.452907,24.5937534 246.56248,24.5937534 Z M246.572865,23.6397761 C248.379139,23.6397761 249.84561,22.1733051 249.84561,20.3670312 C249.84561,18.5607573 248.379139,17.0942862 246.572865,17.0942862 C246.569518,17.0942862 246.565827,17.0937712 246.56248,17.0937712 C246.244592,17.0987494 245.936804,17.1501333 245.647241,17.2402553 C245.779849,17.4734281 245.857354,17.744538 245.859357,18.031269 C245.859357,18.936752 245.124218,19.6718901 244.218735,19.6718901 C243.932004,19.6698874 243.660895,19.5923824 243.427722,19.4597744 C243.344638,19.7479073 243.30012,20.0523194 243.30012,20.3670312 C243.30012,22.1733051 244.766591,23.6397761 246.572865,23.6397761 Z" id="eye"></path>
                </g>
            </g>
        </g>
    </g>
</svg>