<?xml version="1.0" encoding="UTF-8"?>
<svg width="15px" height="19px" viewBox="0 0 15 19" version="1.1" xmlns="http://www.w3.org/2000/svg" xmlns:xlink="http://www.w3.org/1999/xlink">
    <title>file</title>
    <g id="Page-1" stroke="none" stroke-width="1" fill="none" fill-rule="evenodd">
        <g id="Profile-Page-2" transform="translate(-42.000000, -281.000000)" fill="#ACB2BF" fill-rule="nonzero">
            <g id="side-menu" transform="translate(-1.000000, 70.000000)">
                <g id="4" transform="translate(43.500000, 210.000000)">
                    <path d="M12.0624718,19.2499946 C12.9941102,19.2499946 13.7499678,18.4941371 13.7499678,17.5624987 L13.7499678,5.8871496 C13.7499678,5.44065943 13.5706851,5.00824545 13.2542796,4.69183995 L10.3046635,1.74222388 C9.98825803,1.42581838 9.55934594,1.24653567 9.11285576,1.24653567 L1.93749598,1.24653567 C1.00585757,1.25003755 0.25,2.00589512 0.25,2.93753353 L0.25,17.5624987 C0.25,18.4941371 1.00585757,19.2499946 1.93749598,19.2499946 L12.0624718,19.2499946 Z M12.0624718,17.5624987 L1.93749598,17.5624987 L1.93749598,2.93753353 L7.56248257,2.93753353 L7.56248257,6.59377481 C7.56248257,7.06134495 7.93866041,7.4375228 8.40623055,7.4375228 L12.0624718,7.4375228 L12.0624718,17.5624987 Z M11.9253491,5.75002682 L9.24997854,5.75002682 L9.24997854,3.07465631 L11.9253491,5.75002682 Z" id="file"></path>
                </g>
            </g>
        </g>
    </g>
</svg>