<?xml version="1.0" encoding="UTF-8"?>
<svg width="19px" height="19px" viewBox="0 0 19 19" version="1.1" xmlns="http://www.w3.org/2000/svg" xmlns:xlink="http://www.w3.org/1999/xlink">
    <title>flag</title>
    <g id="Page-1" stroke="none" stroke-width="1" fill="none" fill-rule="evenodd">
        <g id="Profile-Page-2" transform="translate(-40.000000, -381.000000)" fill="#ACB2BF" fill-rule="nonzero">
            <g id="side-menu" transform="translate(-1.000000, 70.000000)">
                <g id="6" transform="translate(41.500000, 310.000000)">
                    <path d="M1.96874531,19.2499946 C2.27941733,19.2499946 2.53124397,18.998168 2.53124397,18.687496 L2.53124397,15.7539474 C3.86257777,15.1465765 5.0364298,14.7500054 7.02512211,14.7500054 C8.75240909,14.7500054 10.3053572,15.8750027 12.7173655,15.8750027 C14.7732459,15.8750027 16.3022988,15.0798691 17.2366151,14.4694083 C17.7132833,14.1580154 17.9999571,13.6267933 17.9999571,13.0574282 L17.9999571,4.62279791 C17.9999571,3.41135213 16.7602216,2.59191134 15.6478585,3.07184107 C14.3856697,3.61634966 13.0654596,4.06253085 11.818583,4.06253085 C10.091296,4.06253085 8.53834787,2.93753353 6.12633961,2.93753353 C5.02592414,2.93753353 4.07663899,3.16543063 3.28850916,3.47078116 C3.34440197,3.30303406 3.37464863,3.12364835 3.37464863,2.93722454 C3.37464863,2.87075741 3.37131841,2.80659054 3.36379966,2.74211468 C3.27189238,1.93822637 2.6074271,1.30606769 1.80003691,1.25367676 C0.817106206,1.18992188 0,1.96830137 0,2.93753353 C0,3.56203613 0.339511062,4.10688804 0.843747988,4.39867735 L0.843747988,18.687496 C0.843747988,18.998168 1.09557463,19.2499946 1.40624665,19.2499946 L1.96874531,19.2499946 Z M12.7173655,14.1875067 C10.6099181,14.1875067 9.13136785,13.0625094 7.02512211,13.0625094 C5.50070405,13.0625094 3.63680926,13.3930941 2.53124397,13.9062574 L2.53124397,5.75002682 C3.29709221,5.20819614 4.66959031,4.6250295 6.12633961,4.6250295 C8.23378698,4.6250295 9.71233723,5.75002682 11.818583,5.75002682 C13.3398425,5.75002682 15.2048359,5.13949742 16.3124611,4.6250295 L16.3124611,13.0625094 C15.5466472,13.6043401 14.1741148,14.1875067 12.7173655,14.1875067 Z" id="flag"></path>
                </g>
            </g>
        </g>
    </g>
</svg>