<?xml version="1.0" encoding="UTF-8"?>
<svg width="19px" height="14px" viewBox="0 0 19 14" version="1.1" xmlns="http://www.w3.org/2000/svg" xmlns:xlink="http://www.w3.org/1999/xlink">
    <title>folder</title>
    <g id="Page-1" stroke="none" stroke-width="1" fill="none" fill-rule="evenodd">
        <g id="Profile-Page-2" transform="translate(-40.000000, -233.000000)" fill="#ACB2BF" fill-rule="nonzero">
            <g id="side-menu" transform="translate(-1.000000, 70.000000)">
                <g id="3" transform="translate(41.500000, 160.000000)">
                    <path d="M16.3124611,17 C17.2444428,17 17.9999571,16.2444857 17.9999571,15.312504 L17.9999571,7.4375228 C17.9999571,6.50554107 17.2444428,5.75002682 16.3124611,5.75002682 L9.5624772,5.75002682 L7.64189996,3.82944958 C7.43096297,3.61851259 7.14480413,3.50003219 6.84632004,3.50003219 L1.68749598,3.50003219 C0.755514251,3.50003219 0,4.25554644 0,5.18752816 L0,15.312504 C0,16.2444857 0.755514251,17 1.68749598,17 L16.3124611,17 Z M16.3124611,15.312504 L1.68749598,15.312504 L1.68749598,5.18752816 L6.6135821,5.18752816 L8.53415934,7.1081054 C8.74509634,7.3190424 9.03125517,7.4375228 9.32973926,7.4375228 L16.3124611,7.4375228 L16.3124611,15.312504 Z" id="folder"></path>
                </g>
            </g>
        </g>
    </g>
</svg>