<?xml version="1.0" encoding="UTF-8"?>
<svg width="21px" height="17px" viewBox="0 0 21 17" version="1.1" xmlns="http://www.w3.org/2000/svg" xmlns:xlink="http://www.w3.org/1999/xlink">
    <title>home</title>
    <g id="Page-1" stroke="none" stroke-width="1" fill="none" fill-rule="evenodd">
        <g id="Profile-Page-2" transform="translate(-39.000000, -132.000000)" fill="#ACB2BF" fill-rule="nonzero">
            <g id="side-menu" transform="translate(-1.000000, 70.000000)">
                <g id="1" transform="translate(40.000000, 60.000000)">
                    <path d="M8.24998122,18.1249973 C8.8700893,18.1232464 9.3732276,17.6201081 9.37497854,17 L9.37497854,13.3437587 L11.6249732,13.3437587 L11.6249732,17 C11.6267241,17.6201081 12.1298624,18.1232464 12.7499705,18.1249973 L17.2499598,18.1249973 C17.8673899,18.1236927 18.3689833,17.6247773 18.3749571,17.0084457 L18.3749571,10.4493488 L19.342816,11.2445854 C19.4404567,11.3262617 19.5661812,11.3754254 19.703304,11.3754254 C19.8764756,11.3754254 20.0316571,11.2974913 20.1348597,11.1742731 L20.4945237,10.7422024 C20.5763717,10.644493 20.6256727,10.5186312 20.6256727,10.3813024 C20.6256727,10.2071695 20.5468803,10.0512327 20.4224604,9.94803012 L18.3749571,8.26437935 L18.3749571,4.90627883 C18.3749571,4.75106299 18.2489236,4.6250295 18.0937078,4.6250295 L16.9687104,4.6250295 C16.8157262,4.62595647 16.6915123,4.74938071 16.689212,4.90205597 L16.689212,6.87852602 L11.7610317,2.83206503 C11.4193577,2.54758847 10.9801116,2.37640816 10.5011775,2.37640816 C10.0222777,2.37640816 9.58059405,2.54758847 9.23892006,2.83206503 L0.577491277,9.94803012 C0.454170038,10.0512327 0.375686644,10.2063112 0.375686644,10.3795515 C0.375686644,10.5167772 0.425433992,10.6427764 0.507178945,10.7404515 L0.867186327,11.1728655 C0.9703889,11.2960837 1.12539875,11.3744984 1.29857034,11.3744984 C1.43569312,11.3744984 1.56158927,11.3248541 1.65926436,11.2431778 L2.62499464,10.4500698 L2.62499464,17 C2.62674558,17.6201081 3.12988387,18.1232464 3.74999195,18.1249973 L8.24998122,18.1249973 Z M7.68748257,16.4375013 L4.31249061,16.4375013 L4.31249061,9.06418213 L10.4999759,3.97992759 L16.6874611,9.06208786 L16.682174,16.4375013 L13.3124692,16.4375013 L13.3124692,12.7812601 C13.3107182,12.161152 12.8075799,11.6580137 12.1874718,11.6562627 L8.81247988,11.6562627 C8.1923718,11.6580137 7.68923351,12.161152 7.68748257,12.7812601 L7.68748257,16.4375013 Z" id="home"></path>
                </g>
            </g>
        </g>
    </g>
</svg>