<?xml version="1.0" encoding="UTF-8"?>
<svg width="14px" height="15px" viewBox="0 0 14 15" version="1.1" xmlns="http://www.w3.org/2000/svg" xmlns:xlink="http://www.w3.org/1999/xlink">
    <title>pen</title>
    <g id="Page-1" stroke="none" stroke-width="1" fill="none" fill-rule="evenodd">
        <g id="Profile-Page-2" transform="translate(-902.000000, -292.000000)" fill="#2C2C2C" fill-rule="nonzero">
            <g id="edit-btn" transform="translate(889.000000, 280.000000)">
                <path d="M13.6548866,26.7499958 C13.6792129,26.7499958 13.7038329,26.748634 13.7284262,26.7458836 L16.8494514,26.4010968 L26.4872725,16.763249 C27.1708647,16.0796569 27.1708647,14.9717036 26.4875396,14.2883785 L25.4618844,13.2627233 C25.1200883,12.9209272 24.6722019,12.7500292 24.2243156,12.7500292 C23.7764292,12.7500292 23.3285429,12.9209272 22.9870138,13.2624563 L20.9501764,15.2992938 L19.9999806,16.2494868 L13.3513557,22.8978207 L13.0041122,26.0210089 C12.9603463,26.4142079 13.2701524,26.7499958 13.6548866,26.7499958 Z M24.348457,17.0457114 L22.7042844,15.4012718 L23.9150436,14.190486 C24.0266079,14.0789216 24.1567575,14.062259 24.2243156,14.062259 C24.291847,14.062259 24.4222903,14.0789216 24.5335609,14.190486 L25.5592161,15.2161679 C25.7298471,15.3870659 25.7298471,15.6645883 25.5592161,15.8349523 L24.348457,17.0457114 Z M14.3991742,25.3513557 L14.6050796,23.5004766 L21.776228,16.3293282 L23.4206676,17.9737678 L22.5724793,18.8219561 L16.2470626,25.1473728 L14.3991742,25.3513557 Z" id="pen"></path>
            </g>
        </g>
    </g>
</svg>