<?xml version="1.0" encoding="UTF-8"?>
<svg width="19px" height="18px" viewBox="0 0 19 18" version="1.1" xmlns="http://www.w3.org/2000/svg" xmlns:xlink="http://www.w3.org/1999/xlink">
    <title>power-off</title>
    <g id="Page-1" stroke="none" stroke-width="1" fill="none" fill-rule="evenodd">
        <g id="Profile-Page" transform="translate(-40.000000, -945.000000)" fill="#ACB2BF" fill-rule="nonzero">
            <g id="side-menu" transform="translate(-1.000000, 70.000000)">
                <g id="7" transform="translate(41.500000, 874.000000)">
                    <path d="M9.42185254,11.3750134 C9.6538695,11.3750134 9.84372653,11.1851564 9.84372653,10.9531394 L9.84372653,1.67191155 C9.84372653,1.43989458 9.6538695,1.25003755 9.42185254,1.25003755 L8.57810455,1.25003755 C8.34608758,1.25003755 8.15623055,1.43989458 8.15623055,1.67191155 L8.15623055,10.9531394 C8.15623055,11.1851564 8.34608758,11.3750134 8.57810455,11.3750134 L9.42185254,11.3750134 Z M9.01755663,18.9687665 C13.8234114,18.9582053 17.7187078,15.0593728 17.7187078,10.2500161 C17.7187078,7.14923537 16.0980222,4.42463249 13.6581706,2.87776118 C13.4542717,2.75121271 13.1800604,2.81448695 13.0640176,3.02892583 L12.6491817,3.76370343 C12.5402113,3.95706235 12.5999837,4.20315551 12.7863045,4.32270021 C14.7374717,5.57074411 16.0312118,7.75743018 16.0312118,10.2500161 C16.0312118,14.1347725 12.8847349,17.2812493 8.99997854,17.2812493 C5.11522218,17.2812493 1.96874531,14.1347725 1.96874531,10.2500161 C1.96874531,7.75743018 3.26248536,5.57074411 5.21365258,4.31916399 C5.39997339,4.19965363 5.45974574,3.95356046 5.35077536,3.76020155 L4.93593946,3.02542394 C4.81639477,2.81448695 4.54568542,2.7476765 4.34178652,2.87776118 C1.89843297,4.42463249 0.277747446,7.15627347 0.281243666,10.2640923 C0.288287429,15.0664109 4.21873994,18.9792853 9.01755663,18.9687665 Z" id="power-off"></path>
                </g>
            </g>
        </g>
    </g>
</svg>