<?xml version="1.0" encoding="UTF-8"?>
<svg width="17px" height="19px" viewBox="0 0 17 19" version="1.1" xmlns="http://www.w3.org/2000/svg" xmlns:xlink="http://www.w3.org/1999/xlink">
    <title>user</title>
    <g id="Page-1" stroke="none" stroke-width="1" fill="none" fill-rule="evenodd">
        <g id="Profile-Page-2" transform="translate(-41.000000, -181.000000)" fill="#ACB2BF" fill-rule="nonzero">
            <g id="side-menu" transform="translate(-1.000000, 70.000000)">
                <g id="2" transform="translate(40.000000, 110.000000)">
                    <path d="M10.3749812,11.3750134 C13.1698964,11.3750134 15.4374692,9.10744069 15.4374692,6.31252548 C15.4374692,3.51761027 13.1698964,1.25003755 10.3749812,1.25003755 C7.58006601,1.25003755 5.31249329,3.51761027 5.31249329,6.31252548 C5.31249329,9.10744069 7.58006601,11.3750134 10.3749812,11.3750134 Z M10.3749812,9.68751743 C8.5152063,9.68751743 6.99998927,8.1723004 6.99998927,6.31252548 C6.99998927,4.45275056 8.5152063,2.93753353 10.3749812,2.93753353 C12.2347561,2.93753353 13.7499732,4.45275056 13.7499732,6.31252548 C13.7499732,8.1723004 12.2347561,9.68751743 10.3749812,9.68751743 Z M16.5624665,19.2499946 C17.4941049,19.2499946 18.2499624,18.4941371 18.2499624,17.5624987 L18.2499624,16.6625145 C18.2499624,14.0539201 16.1335544,11.9375121 13.52496,11.9375121 C12.5160055,11.9375121 12.0308229,12.5000107 10.3749812,12.5000107 C8.71913953,12.5000107 8.23749319,11.9375121 7.22500247,11.9375121 C4.61640807,11.9375121 2.5,14.0539201 2.5,16.6625145 L2.5,17.5624987 C2.5,18.4941371 3.25585757,19.2499946 4.18749598,19.2499946 L16.5624665,19.2499946 Z M16.5624665,17.5624987 L4.18749598,17.5624987 L4.18749598,16.6625145 C4.18749598,14.9890604 5.55154836,13.625008 7.22500247,13.625008 C7.73826876,13.625008 8.57147677,14.1875067 10.3749812,14.1875067 C12.1925619,14.1875067 13.0081918,13.625008 13.52496,13.625008 C15.1984141,13.625008 16.5624665,14.9890604 16.5624665,16.6625145 L16.5624665,17.5624987 Z" id="user"></path>
                </g>
            </g>
        </g>
    </g>
</svg>